# xmcd
# Track frame offsets:
# 150
# 15344
# 28658
# 42222
# 57014
# 68790
# 81549
# 93696
# 103637
# 120552
# 132192
# 149152
# 162800
# 175195
# 184918
# 200001
# 211198
#
# Disc length: 2987 seconds
# Revision: 0
# Processed by: cddbd v1.5.2PL0 Copyright (c) Steve Scherf et al.
# Submitted via: VisiTrax 2.10.2.252 - For more info visit www.synapsa.com
#
DISCID=f10ba911
DTITLE=Interstate 40 Rhythm Kings - Livin* the wild life!
DYEAR=2008
DGENRE=Blues
TTITLE0=Ain*t that right
TTITLE1=Further up the road
TTITLE2=Wild life
TTITLE3=It*s your voodoo working
TTITLE4=Lonely no more
TTITLE5=Don*t do it
TTITLE6=I Didn*t want to do it
TTITLE7=Do right baby
TTITLE8=Sufferin pain
TTITLE9=Think
TTITLE10=Trouble Trouble
TTITLE11=I gotta go home
TTITLE12=White wild cat
TTITLE13=You*d better find
TTITLE14=All around the world
TTITLE15=Baby I*m gone
TTITLE16=What*cha gonna do
EXTD=
EXTT0=
EXTT1=
EXTT2=
EXTT3=
EXTT4=
EXTT5=
EXTT6=
EXTT7=
EXTT8=
EXTT9=
EXTT10=
EXTT11=
EXTT12=
EXTT13=
EXTT14=
EXTT15=
EXTT16=
PLAYORDER=
